<svg xmlns="http://www.w3.org/2000/svg" xmlns:xlink="http://www.w3.org/1999/xlink" width="500" zoomAndPan="magnify" viewBox="0 0 375 374.999991" height="500" preserveAspectRatio="xMidYMid meet" version="1.0"><defs><g/><clipPath id="c480a2d7a6"><path d="M 148 96.488281 L 227 96.488281 L 227 178.238281 L 148 178.238281 Z M 148 96.488281 " clip-rule="nonzero"/></clipPath><clipPath id="91c720d36c"><path d="M 136.035156 130 L 145 130 L 145 159 L 136.035156 159 Z M 136.035156 130 " clip-rule="nonzero"/></clipPath><clipPath id="3dbca4e4b4"><path d="M 229 130 L 238.785156 130 L 238.785156 159 L 229 159 Z M 229 130 " clip-rule="nonzero"/></clipPath></defs><g fill="#000000" fill-opacity="1"><g transform="translate(93.184589, 219.452013)"><g><path d="M 17.484375 0.609375 C 14.410156 0.609375 11.382812 0.257812 8.40625 -0.4375 C 5.425781 -1.132812 3.03125 -2.050781 1.21875 -3.1875 L 5.078125 -12 C 6.753906 -10.957031 8.742188 -10.128906 11.046875 -9.515625 C 13.359375 -8.910156 15.640625 -8.609375 17.890625 -8.609375 C 19.972656 -8.609375 21.453125 -8.820312 22.328125 -9.25 C 23.210938 -9.675781 23.65625 -10.300781 23.65625 -11.125 C 23.65625 -11.9375 23.125 -12.507812 22.0625 -12.84375 C 21 -13.1875 19.316406 -13.515625 17.015625 -13.828125 C 14.078125 -14.191406 11.578125 -14.664062 9.515625 -15.25 C 7.460938 -15.84375 5.691406 -16.925781 4.203125 -18.5 C 2.710938 -20.082031 1.96875 -22.300781 1.96875 -25.15625 C 1.96875 -27.5 2.664062 -29.585938 4.0625 -31.421875 C 5.46875 -33.253906 7.515625 -34.703125 10.203125 -35.765625 C 12.890625 -36.828125 16.109375 -37.359375 19.859375 -37.359375 C 22.523438 -37.359375 25.171875 -37.085938 27.796875 -36.546875 C 30.421875 -36.003906 32.613281 -35.234375 34.375 -34.234375 L 30.515625 -25.484375 C 27.253906 -27.296875 23.726562 -28.203125 19.9375 -28.203125 C 17.894531 -28.203125 16.398438 -27.960938 15.453125 -27.484375 C 14.503906 -27.015625 14.03125 -26.394531 14.03125 -25.625 C 14.03125 -24.769531 14.550781 -24.171875 15.59375 -23.828125 C 16.632812 -23.492188 18.351562 -23.144531 20.75 -22.78125 C 23.769531 -22.332031 26.273438 -21.8125 28.265625 -21.21875 C 30.253906 -20.632812 31.984375 -19.5625 33.453125 -18 C 34.921875 -16.4375 35.65625 -14.253906 35.65625 -11.453125 C 35.65625 -9.148438 34.953125 -7.082031 33.546875 -5.25 C 32.148438 -3.425781 30.082031 -1.992188 27.34375 -0.953125 C 24.613281 0.0859375 21.328125 0.609375 17.484375 0.609375 Z M 17.484375 0.609375 "/></g></g></g><g fill="#000000" fill-opacity="1"><g transform="translate(124.706674, 219.452013)"><g><path d="M 52 -37.359375 C 56.519531 -37.359375 60.125 -36 62.8125 -33.28125 C 65.5 -30.570312 66.84375 -26.484375 66.84375 -21.015625 L 66.84375 0 L 53.96875 0 L 53.96875 -18.921875 C 53.96875 -21.492188 53.476562 -23.390625 52.5 -24.609375 C 51.53125 -25.828125 50.164062 -26.4375 48.40625 -26.4375 C 46.457031 -26.4375 44.894531 -25.757812 43.71875 -24.40625 C 42.550781 -23.050781 41.96875 -20.992188 41.96875 -18.234375 L 41.96875 0 L 29.078125 0 L 29.078125 -18.921875 C 29.078125 -23.929688 27.226562 -26.4375 23.53125 -26.4375 C 21.539062 -26.4375 19.957031 -25.757812 18.78125 -24.40625 C 17.601562 -23.050781 17.015625 -20.992188 17.015625 -18.234375 L 17.015625 0 L 4.140625 0 L 4.140625 -36.75 L 16.40625 -36.75 L 16.40625 -32.875 C 17.757812 -34.375 19.375 -35.492188 21.25 -36.234375 C 23.125 -36.984375 25.171875 -37.359375 27.390625 -37.359375 C 29.960938 -37.359375 32.265625 -36.882812 34.296875 -35.9375 C 36.335938 -34.988281 37.988281 -33.539062 39.25 -31.59375 C 40.695312 -33.445312 42.523438 -34.867188 44.734375 -35.859375 C 46.953125 -36.859375 49.375 -37.359375 52 -37.359375 Z M 52 -37.359375 "/></g></g></g><g fill="#000000" fill-opacity="1"><g transform="translate(189.988768, 219.452013)"><g><path d="M 19.796875 -37.359375 C 25.898438 -37.359375 30.554688 -35.96875 33.765625 -33.1875 C 36.972656 -30.40625 38.578125 -26.144531 38.578125 -20.40625 L 38.578125 0 L 26.578125 0 L 26.578125 -4.75 C 24.722656 -1.175781 21.109375 0.609375 15.734375 0.609375 C 12.878906 0.609375 10.410156 0.113281 8.328125 -0.875 C 6.253906 -1.875 4.6875 -3.21875 3.625 -4.90625 C 2.5625 -6.601562 2.03125 -8.539062 2.03125 -10.71875 C 2.03125 -14.195312 3.363281 -16.894531 6.03125 -18.8125 C 8.695312 -20.726562 12.8125 -21.6875 18.375 -21.6875 L 25.6875 -21.6875 C 25.46875 -25.582031 22.867188 -27.53125 17.890625 -27.53125 C 16.128906 -27.53125 14.34375 -27.242188 12.53125 -26.671875 C 10.726562 -26.109375 9.195312 -25.332031 7.9375 -24.34375 L 3.59375 -33.078125 C 5.625 -34.441406 8.097656 -35.492188 11.015625 -36.234375 C 13.929688 -36.984375 16.859375 -37.359375 19.796875 -37.359375 Z M 19.328125 -7.53125 C 20.816406 -7.53125 22.125 -7.890625 23.25 -8.609375 C 24.382812 -9.328125 25.195312 -10.390625 25.6875 -11.796875 L 25.6875 -14.984375 L 20.140625 -14.984375 C 16.390625 -14.984375 14.515625 -13.738281 14.515625 -11.25 C 14.515625 -10.125 14.941406 -9.222656 15.796875 -8.546875 C 16.648438 -7.867188 17.828125 -7.53125 19.328125 -7.53125 Z M 19.328125 -7.53125 "/></g></g></g><g fill="#000000" fill-opacity="1"><g transform="translate(227.001937, 219.452013)"><g><path d="M 16.40625 -32.34375 C 17.71875 -34.007812 19.421875 -35.257812 21.515625 -36.09375 C 23.617188 -36.9375 26.03125 -37.359375 28.75 -37.359375 L 28.75 -25.765625 C 27.570312 -25.898438 26.597656 -25.96875 25.828125 -25.96875 C 23.066406 -25.96875 20.90625 -25.21875 19.34375 -23.71875 C 17.789062 -22.226562 17.015625 -19.945312 17.015625 -16.875 L 17.015625 0 L 4.140625 0 L 4.140625 -36.75 L 16.40625 -36.75 Z M 16.40625 -32.34375 "/></g></g></g><g fill="#000000" fill-opacity="1"><g transform="translate(251.473736, 219.452013)"><g><path d="M 29.484375 -1.484375 C 28.398438 -0.804688 27.078125 -0.289062 25.515625 0.0625 C 23.960938 0.425781 22.304688 0.609375 20.546875 0.609375 C 15.753906 0.609375 12.066406 -0.5625 9.484375 -2.90625 C 6.910156 -5.257812 5.625 -8.765625 5.625 -13.421875 L 5.625 -25.765625 L 0.265625 -25.765625 L 0.265625 -35.390625 L 5.625 -35.390625 L 5.625 -44.953125 L 18.515625 -44.953125 L 18.515625 -35.390625 L 26.921875 -35.390625 L 26.921875 -25.765625 L 18.515625 -25.765625 L 18.515625 -13.5625 C 18.515625 -12.25 18.863281 -11.21875 19.5625 -10.46875 C 20.257812 -9.726562 21.195312 -9.359375 22.375 -9.359375 C 23.863281 -9.359375 25.175781 -9.742188 26.3125 -10.515625 Z M 29.484375 -1.484375 "/></g></g></g><g clip-path="url(#c480a2d7a6)"><path fill="#000000" d="M 209.109375 178.234375 L 165.652344 178.234375 C 156.078125 178.234375 148.316406 170.476562 148.316406 160.972656 L 148.316406 132.820312 C 148.316406 123.257812 156.078125 115.5 165.652344 115.5 L 185.515625 115.5 L 185.574219 108.882812 C 182.984375 108.101562 181.058594 105.695312 181.058594 102.808594 C 181.058594 99.320312 183.949219 96.492188 187.441406 96.492188 C 190.929688 96.492188 193.820312 99.320312 193.820312 102.808594 C 193.820312 105.695312 191.835938 108.160156 189.1875 108.941406 L 189.125 115.5 L 209.109375 115.5 C 218.621094 115.5 226.386719 123.257812 226.386719 132.820312 L 226.386719 161.03125 C 226.386719 170.535156 218.621094 178.234375 209.109375 178.234375 Z M 171.066406 150.925781 C 165.953125 150.925781 161.917969 146.898438 161.917969 141.84375 C 161.917969 136.730469 165.953125 132.703125 171.066406 132.703125 C 176.183594 132.703125 180.15625 136.730469 180.15625 141.84375 C 180.15625 146.898438 176.183594 150.925781 171.066406 150.925781 Z M 171.066406 136.3125 C 167.9375 136.3125 165.53125 138.714844 165.53125 141.84375 C 165.53125 144.910156 167.9375 147.316406 171.066406 147.316406 C 174.136719 147.316406 176.605469 144.910156 176.605469 141.84375 C 176.605469 138.714844 174.136719 136.3125 171.066406 136.3125 Z M 203.753906 150.566406 C 198.636719 150.566406 194.542969 146.476562 194.542969 141.421875 C 194.542969 136.371094 198.636719 132.28125 203.753906 132.28125 C 208.75 132.28125 212.84375 136.371094 212.84375 141.421875 C 212.84375 146.476562 208.75 150.566406 203.753906 150.566406 Z M 203.753906 135.890625 C 200.621094 135.890625 198.15625 138.414062 198.15625 141.421875 C 198.15625 144.492188 200.621094 147.015625 203.753906 147.015625 C 206.824219 147.015625 209.230469 144.492188 209.230469 141.421875 C 209.230469 138.296875 206.761719 135.890625 203.753906 135.890625 Z M 186.71875 161.511719 C 183.285156 161.511719 180.277344 159.890625 178.59375 158.445312 C 177.808594 157.785156 177.75 156.582031 178.410156 155.917969 C 179.074219 155.199219 180.15625 155.078125 180.941406 155.800781 C 181.480469 156.28125 186.71875 160.429688 191.714844 155.859375 C 192.4375 155.199219 193.519531 155.199219 194.300781 155.917969 C 194.964844 156.703125 194.964844 157.785156 194.242188 158.507812 C 191.714844 160.671875 189.125 161.511719 186.71875 161.511719 Z M 186.71875 161.511719 " fill-opacity="1" fill-rule="evenodd"/></g><g clip-path="url(#91c720d36c)"><path fill="#000000" d="M 144.703125 158.925781 L 143.980469 158.925781 C 139.648438 158.925781 136.035156 155.378906 136.035156 150.988281 L 136.035156 138.714844 C 136.035156 134.324219 139.648438 130.714844 143.980469 130.714844 L 144.824219 130.714844 C 144.761719 131.378906 144.703125 132.101562 144.703125 132.820312 Z M 144.703125 158.925781 " fill-opacity="1" fill-rule="evenodd"/></g><g clip-path="url(#3dbca4e4b4)"><path fill="#000000" d="M 230.71875 158.925781 L 229.996094 158.925781 L 229.996094 132.820312 C 229.996094 132.039062 229.9375 131.316406 229.875 130.65625 L 230.71875 130.65625 C 235.171875 130.65625 238.785156 134.207031 238.785156 138.65625 L 238.785156 150.988281 C 238.785156 155.4375 235.171875 158.925781 230.71875 158.925781 Z M 230.71875 158.925781 " fill-opacity="1" fill-rule="evenodd"/></g><g fill="#0a2635" fill-opacity="1"><g transform="translate(119.929889, 235.611055)"><g><path d="M 2.109375 -5.265625 L 0.03125 -5.265625 L 0.03125 -6.484375 L 5.6875 -6.484375 L 5.6875 -5.265625 L 3.609375 -5.265625 L 3.609375 0 L 2.109375 0 Z M 2.109375 -5.265625 "/></g></g></g><g fill="#0a2635" fill-opacity="1"><g transform="translate(133.075543, 235.611055)"><g><path d="M 5.796875 -1.203125 L 5.796875 0 L 0.765625 0 L 0.765625 -6.484375 L 5.671875 -6.484375 L 5.671875 -5.28125 L 2.265625 -5.28125 L 2.265625 -3.875 L 5.265625 -3.875 L 5.265625 -2.703125 L 2.265625 -2.703125 L 2.265625 -1.203125 Z M 5.796875 -1.203125 "/></g></g></g><g fill="#0a2635" fill-opacity="1"><g transform="translate(146.712394, 235.611055)"><g><path d="M 3.875 0.109375 C 3.207031 0.109375 2.609375 -0.03125 2.078125 -0.3125 C 1.546875 -0.601562 1.125 -1.003906 0.8125 -1.515625 C 0.507812 -2.023438 0.359375 -2.601562 0.359375 -3.25 C 0.359375 -3.882812 0.507812 -4.457031 0.8125 -4.96875 C 1.125 -5.476562 1.546875 -5.875 2.078125 -6.15625 C 2.609375 -6.445312 3.207031 -6.59375 3.875 -6.59375 C 4.4375 -6.59375 4.945312 -6.492188 5.40625 -6.296875 C 5.863281 -6.097656 6.242188 -5.816406 6.546875 -5.453125 L 5.59375 -4.5625 C 5.144531 -5.0625 4.597656 -5.3125 3.953125 -5.3125 C 3.554688 -5.3125 3.195312 -5.222656 2.875 -5.046875 C 2.5625 -4.878906 2.316406 -4.632812 2.140625 -4.3125 C 1.960938 -4 1.875 -3.644531 1.875 -3.25 C 1.875 -2.84375 1.960938 -2.484375 2.140625 -2.171875 C 2.316406 -1.859375 2.5625 -1.613281 2.875 -1.4375 C 3.195312 -1.257812 3.554688 -1.171875 3.953125 -1.171875 C 4.597656 -1.171875 5.144531 -1.425781 5.59375 -1.9375 L 6.546875 -1.046875 C 6.242188 -0.671875 5.863281 -0.382812 5.40625 -0.1875 C 4.945312 0.0078125 4.4375 0.109375 3.875 0.109375 Z M 3.875 0.109375 "/></g></g></g><g fill="#0a2635" fill-opacity="1"><g transform="translate(160.923847, 235.611055)"><g><path d="M 6.71875 -6.484375 L 6.71875 0 L 5.21875 0 L 5.21875 -2.65625 L 2.265625 -2.65625 L 2.265625 0 L 0.765625 0 L 0.765625 -6.484375 L 2.265625 -6.484375 L 2.265625 -3.921875 L 5.21875 -3.921875 L 5.21875 -6.484375 Z M 6.71875 -6.484375 "/></g></g></g><g fill="#0a2635" fill-opacity="1"><g transform="translate(175.830387, 235.611055)"><g><path d="M 6.71875 -6.484375 L 6.71875 0 L 5.484375 0 L 2.25 -3.9375 L 2.25 0 L 0.765625 0 L 0.765625 -6.484375 L 2.015625 -6.484375 L 5.234375 -2.546875 L 5.234375 -6.484375 Z M 6.71875 -6.484375 "/></g></g></g><g fill="#0a2635" fill-opacity="1"><g transform="translate(190.736927, 235.611055)"><g><path d="M 3.90625 0.109375 C 3.238281 0.109375 2.632812 -0.0351562 2.09375 -0.328125 C 1.550781 -0.617188 1.125 -1.015625 0.8125 -1.515625 C 0.507812 -2.023438 0.359375 -2.601562 0.359375 -3.25 C 0.359375 -3.882812 0.507812 -4.453125 0.8125 -4.953125 C 1.125 -5.460938 1.550781 -5.863281 2.09375 -6.15625 C 2.632812 -6.445312 3.238281 -6.59375 3.90625 -6.59375 C 4.582031 -6.59375 5.1875 -6.445312 5.71875 -6.15625 C 6.257812 -5.863281 6.679688 -5.460938 6.984375 -4.953125 C 7.296875 -4.453125 7.453125 -3.882812 7.453125 -3.25 C 7.453125 -2.601562 7.296875 -2.023438 6.984375 -1.515625 C 6.679688 -1.015625 6.257812 -0.617188 5.71875 -0.328125 C 5.1875 -0.0351562 4.582031 0.109375 3.90625 0.109375 Z M 3.90625 -1.171875 C 4.289062 -1.171875 4.632812 -1.257812 4.9375 -1.4375 C 5.25 -1.613281 5.492188 -1.859375 5.671875 -2.171875 C 5.847656 -2.484375 5.9375 -2.84375 5.9375 -3.25 C 5.9375 -3.644531 5.847656 -4 5.671875 -4.3125 C 5.492188 -4.632812 5.25 -4.878906 4.9375 -5.046875 C 4.632812 -5.222656 4.289062 -5.3125 3.90625 -5.3125 C 3.519531 -5.3125 3.171875 -5.222656 2.859375 -5.046875 C 2.554688 -4.878906 2.316406 -4.632812 2.140625 -4.3125 C 1.960938 -4 1.875 -3.644531 1.875 -3.25 C 1.875 -2.84375 1.960938 -2.484375 2.140625 -2.171875 C 2.316406 -1.859375 2.554688 -1.613281 2.859375 -1.4375 C 3.171875 -1.257812 3.519531 -1.171875 3.90625 -1.171875 Z M 3.90625 -1.171875 "/></g></g></g><g fill="#0a2635" fill-opacity="1"><g transform="translate(205.977108, 235.611055)"><g><path d="M 0.765625 -6.484375 L 2.265625 -6.484375 L 2.265625 -1.21875 L 5.515625 -1.21875 L 5.515625 0 L 0.765625 0 Z M 0.765625 -6.484375 "/></g></g></g><g fill="#0a2635" fill-opacity="1"><g transform="translate(218.993016, 235.611055)"><g><path d="M 3.90625 0.109375 C 3.238281 0.109375 2.632812 -0.0351562 2.09375 -0.328125 C 1.550781 -0.617188 1.125 -1.015625 0.8125 -1.515625 C 0.507812 -2.023438 0.359375 -2.601562 0.359375 -3.25 C 0.359375 -3.882812 0.507812 -4.453125 0.8125 -4.953125 C 1.125 -5.460938 1.550781 -5.863281 2.09375 -6.15625 C 2.632812 -6.445312 3.238281 -6.59375 3.90625 -6.59375 C 4.582031 -6.59375 5.1875 -6.445312 5.71875 -6.15625 C 6.257812 -5.863281 6.679688 -5.460938 6.984375 -4.953125 C 7.296875 -4.453125 7.453125 -3.882812 7.453125 -3.25 C 7.453125 -2.601562 7.296875 -2.023438 6.984375 -1.515625 C 6.679688 -1.015625 6.257812 -0.617188 5.71875 -0.328125 C 5.1875 -0.0351562 4.582031 0.109375 3.90625 0.109375 Z M 3.90625 -1.171875 C 4.289062 -1.171875 4.632812 -1.257812 4.9375 -1.4375 C 5.25 -1.613281 5.492188 -1.859375 5.671875 -2.171875 C 5.847656 -2.484375 5.9375 -2.84375 5.9375 -3.25 C 5.9375 -3.644531 5.847656 -4 5.671875 -4.3125 C 5.492188 -4.632812 5.25 -4.878906 4.9375 -5.046875 C 4.632812 -5.222656 4.289062 -5.3125 3.90625 -5.3125 C 3.519531 -5.3125 3.171875 -5.222656 2.859375 -5.046875 C 2.554688 -4.878906 2.316406 -4.632812 2.140625 -4.3125 C 1.960938 -4 1.875 -3.644531 1.875 -3.25 C 1.875 -2.84375 1.960938 -2.484375 2.140625 -2.171875 C 2.316406 -1.859375 2.554688 -1.613281 2.859375 -1.4375 C 3.171875 -1.257812 3.519531 -1.171875 3.90625 -1.171875 Z M 3.90625 -1.171875 "/></g></g></g><g fill="#0a2635" fill-opacity="1"><g transform="translate(234.233198, 235.611055)"><g><path d="M 5.15625 -3.34375 L 6.515625 -3.34375 L 6.515625 -0.71875 C 6.171875 -0.445312 5.765625 -0.238281 5.296875 -0.09375 C 4.835938 0.0390625 4.375 0.109375 3.90625 0.109375 C 3.226562 0.109375 2.617188 -0.03125 2.078125 -0.3125 C 1.546875 -0.601562 1.125 -1.003906 0.8125 -1.515625 C 0.507812 -2.023438 0.359375 -2.601562 0.359375 -3.25 C 0.359375 -3.882812 0.507812 -4.457031 0.8125 -4.96875 C 1.125 -5.476562 1.550781 -5.875 2.09375 -6.15625 C 2.632812 -6.445312 3.242188 -6.59375 3.921875 -6.59375 C 4.492188 -6.59375 5.007812 -6.492188 5.46875 -6.296875 C 5.9375 -6.109375 6.328125 -5.832031 6.640625 -5.46875 L 5.6875 -4.59375 C 5.21875 -5.070312 4.65625 -5.3125 4 -5.3125 C 3.582031 -5.3125 3.210938 -5.222656 2.890625 -5.046875 C 2.578125 -4.878906 2.328125 -4.640625 2.140625 -4.328125 C 1.960938 -4.015625 1.875 -3.65625 1.875 -3.25 C 1.875 -2.84375 1.960938 -2.484375 2.140625 -2.171875 C 2.328125 -1.859375 2.578125 -1.613281 2.890625 -1.4375 C 3.210938 -1.257812 3.578125 -1.171875 3.984375 -1.171875 C 4.421875 -1.171875 4.8125 -1.265625 5.15625 -1.453125 Z M 5.15625 -3.34375 "/></g></g></g><g fill="#0a2635" fill-opacity="1"><g transform="translate(248.796832, 235.611055)"><g><path d="M 3.875 -2.296875 L 3.875 0 L 2.375 0 L 2.375 -2.3125 L -0.125 -6.484375 L 1.46875 -6.484375 L 3.203125 -3.609375 L 4.921875 -6.484375 L 6.40625 -6.484375 Z M 3.875 -2.296875 "/></g></g></g></svg>